<svg version="1.1"
     baseProfile="full"
     width="150" height="80" viewBox="0 0 150 90"
     xmlns="http://www.w3.org/2000/svg">
  <style>
    .letter {
      fill: #1E6FBF;
    }
    .arrow {
      fill: none;
      stroke: #1E6FBF;
      stroke-width: 6;
      stroke-linejoin: round;
      stroke-linecap: round;
    }
  </style>

  <!-- Draw left A -->
  <polygon points="0,80 9.6,80 28.8,32 19.2,32" class="letter" />
  <polygon points="38.4,80 48,80 28.8,32 19.2,32" class="letter" />
  <polygon points="9.6,69.2 38.4,69.2 38.4,60.8 9.6,60.8" class="letter" />

  <!-- Draw left A -->
  <polygon points="100,80 109.6,80 128.8,32 119.2,32" class="letter" />
  <polygon points="138.4,80 148,80 128.8,32 119.2,32" class="letter" />
  <polygon points="109.6,69.2 138.4,69.2 138.4,60.8 109.6,60.8" class="letter" />

  <!-- Draw arrow -->
  <line x1="51.7" y1="55" x2="96" y2="55" class="arrow" />
  <polyline points="65.7,45 50.7,55 65.7,65" class="arrow" />
  <polyline points="82,45 97,55 82,65" class="arrow" />
</svg>



