<svg version="1.1"
     baseProfile="full"
     width="100" height="100"
     xmlns="http://www.w3.org/2000/svg">
  <style>
    .letter {
      fill: #1E6FBF;
    }
    .arrow {
      fill: none;
      stroke: #1E6FBF;
      stroke-width: 5;
      stroke-linejoin: round;
      stroke-linecap: round;
    }
  </style>

  <!-- Draw bottom A -->
  <polygon points="0,100 7.7,100 25.3,56 17.6,56" class="letter" />
  <polygon points="35.2,100 42.9,100 25.3,56 17.6,56" class="letter" />
  <polygon points="7.7,90.1 35.2,90.1 35.2,82.4 7.7,82.4" class="letter" />

  <!-- Draw top A -->
  <polygon points="0,50 7.7,50 25.3,6 17.6,6" class="letter" />
  <polygon points="35.2,50 42.9,50 25.3,6 17.6,6" class="letter" />
  <polygon points="7.7,40.1 35.2,40.1 35.2,32.4 7.7,32.4" class="letter" />

  <!-- Draw arrow -->
  <line x1="65" y1="95" x2="65" y2="55" class="arrow" />
  <polyline points="55,82 65,97 75,82" class="arrow" />
  <polyline points="55,68 65,53 75,68" class="arrow" />
</svg>

 




